<svg xmlns="http://www.w3.org/2000/svg" xmlns:xlink="http://www.w3.org/1999/xlink" id="Capa_1" width="573.75" height="573.75" x="0" y="0" enable-background="new 0 0 573.75 573.75" version="1.1" viewBox="0 0 573.75 573.75" xml:space="preserve"><g><path d="M86.062,181.688c9.562,0,401.625,0,401.625,0V76.5h19.125V35.859C506.812,16.256,494.859,0,475.256,0h-24.862H123.834 H89.409C69.806,0,57.375,16.256,57.375,35.859V76.5h28.688V181.688z"/><rect width="86.062" height="47.812" x="38.25" y="525.938"/><rect width="86.062" height="47.812" x="420.75" y="525.938"/><rect width="573.75" height="66.938" y="439.875"/><path d="M488.644,200.812h-4.303c0,0-393.975,0-395.888,0C40.641,202.725,0,229.978,0,277.791V420.75h573.75V277.791 C573.75,228.544,537.891,200.812,488.644,200.812z M19.125,286.396c0-43.031,26.297-66.459,69.328-66.459h0.956h21.994 l-21.038,21.516l-71.241,76.021V286.396z"/></g></svg>