<svg xmlns="http://www.w3.org/2000/svg" xmlns:xlink="http://www.w3.org/1999/xlink" id="Capa_1" width="602.438" height="602.438" x="0" y="0" enable-background="new 0 0 602.438 602.438" version="1.1" viewBox="0 0 602.438 602.438" xml:space="preserve"><g><g><path d="M463.781,0H138.656v602.438h325.125V0z M320.344,47.812V38.25h86.062V306h-9.562h-76.5V47.812z M196.031,47.812V38.25 h86.062V306h-9.562h-76.5V47.812z M406.406,564.188h-9.562H196.031V353.812v-9.562h210.375V564.188z M424.336,347.836 c-13.177,0-23.906-10.729-23.906-23.906s10.729-23.906,23.906-23.906s23.906,10.729,23.906,23.906 S437.513,347.836,424.336,347.836z"/><rect width="66.938" height="248.625" x="205.594" y="47.812"/><rect width="66.938" height="248.625" x="329.906" y="47.812"/><rect width="191.25" height="200.812" x="205.594" y="353.812"/><circle cx="424.336" cy="323.93" r="14.344"/></g></g></svg>