<svg xmlns="http://www.w3.org/2000/svg" xmlns:xlink="http://www.w3.org/1999/xlink" id="Capa_1" width="430.312" height="430.312" x="0" y="0" enable-background="new 0 0 430.312 430.312" version="1.1" viewBox="0 0 430.312 430.312" xml:space="preserve"><g><polygon points="0 167.42 0 277.227 200.812 344.164 200.812 229.414 170.595 219.345"/><polygon points="330.26 177.949 301.42 189.825 210.375 229.414 210.375 344.164 430.312 252.526 425.464 200.516"/><polygon points="366.177 121.53 360.372 113.784 246.35 86.148 1.186 157.791 204.159 219.564 329.094 168.09"/><polygon points="341.151 168.291 339.536 170.318 343.906 171.36 345.397 171.714 413.693 187.894 402.906 172.804 389.223 153.65 386.363 149.663 379.698 140.33 372 129.562 347.291 160.583"/></g></svg>