<svg xmlns="http://www.w3.org/2000/svg" xmlns:xlink="http://www.w3.org/1999/xlink" id="Capa_1" width="545.062" height="545.062" x="0" y="0" enable-background="new 0 0 545.062 545.062" version="1.1" viewBox="0 0 545.062 545.062" xml:space="preserve"><g><rect width="28.688" height="9.562" x="38.25" y="315.562"/><rect width="28.688" height="9.562" x="38.25" y="372.938"/><rect width="28.688" height="9.562" x="38.25" y="353.812"/><rect width="28.688" height="9.562" x="38.25" y="296.438"/><rect width="28.688" height="9.562" x="38.25" y="334.688"/><polygon points="516.375 153 516.375 162.562 516.375 172.125 516.375 181.688 516.375 191.25 516.375 200.812 516.375 210.375 516.375 219.938 516.375 229.5 516.375 239.062 516.375 248.625 516.375 258.188 516.375 267.75 516.375 277.312 516.375 286.875 516.375 296.438 516.375 306 516.375 315.562 516.375 325.125 516.375 334.688 516.375 344.25 516.375 353.812 516.375 363.375 516.375 372.938 516.375 382.5 516.375 392.062 516.375 401.625 545.062 401.625 545.062 143.438 516.375 143.438"/><rect width="28.688" height="9.562" x="478.125" y="181.688"/><rect width="28.688" height="9.562" x="478.125" y="258.188"/><rect width="28.688" height="9.562" x="478.125" y="277.312"/><rect width="28.688" height="9.562" x="478.125" y="239.062"/><polygon points="76.5 153 76.5 162.562 76.5 172.125 76.5 181.688 76.5 191.25 76.5 200.812 76.5 210.375 76.5 219.938 76.5 229.5 76.5 239.062 76.5 248.625 76.5 258.188 76.5 267.75 76.5 277.312 76.5 286.875 76.5 296.438 76.5 306 76.5 315.562 76.5 325.125 76.5 334.688 76.5 344.25 76.5 353.812 76.5 363.375 76.5 372.938 76.5 382.5 76.5 392.062 76.5 401.625 468.562 401.625 468.562 143.438 76.5 143.438"/><rect width="28.688" height="9.562" x="478.125" y="219.938"/><rect width="28.688" height="9.562" x="478.125" y="200.812"/><rect width="28.688" height="9.562" x="478.125" y="296.438"/><rect width="28.688" height="9.562" x="478.125" y="315.562"/><rect width="28.688" height="9.562" x="478.125" y="372.938"/><rect width="28.688" height="9.562" x="38.25" y="392.062"/><rect width="28.688" height="9.562" x="478.125" y="143.438"/><rect width="28.688" height="9.562" x="478.125" y="353.812"/><rect width="28.688" height="9.562" x="38.25" y="143.438"/><rect width="28.688" height="9.562" x="478.125" y="334.688"/><rect width="28.688" height="9.562" x="478.125" y="392.062"/><rect width="28.688" height="9.562" x="478.125" y="162.562"/><rect width="28.688" height="9.562" x="38.25" y="219.938"/><rect width="28.688" height="9.562" x="38.25" y="162.562"/><rect width="28.688" height="9.562" x="38.25" y="239.062"/><rect width="28.688" height="9.562" x="38.25" y="277.312"/><rect width="28.688" height="9.562" x="38.25" y="200.812"/><rect width="28.688" height="9.562" x="38.25" y="181.688"/><rect width="28.688" height="9.562" x="38.25" y="258.188"/><rect width="28.688" height="258.188" y="143.438"/></g></svg>