<svg xmlns="http://www.w3.org/2000/svg" xmlns:xlink="http://www.w3.org/1999/xlink" id="Capa_1" width="545.062" height="545.062" x="0" y="0" enable-background="new 0 0 545.062 545.062" version="1.1" viewBox="0 0 545.062 545.062" xml:space="preserve"><g><g><path d="M143.438,545.062h258.188V0H143.438V545.062z M353.812,219.938c0-7.908,6.436-14.344,14.344-14.344 s14.344,6.436,14.344,14.344v76.5c0,7.908-6.436,14.344-14.344,14.344s-14.344-6.436-14.344-14.344V219.938z M229.5,57.375h95.625 v430.312H229.5V57.375z"/><path d="M368.156,301.219c2.64,0,4.781-2.142,4.781-4.781v-76.5c0-2.639-2.142-4.781-4.781-4.781 c-1.979,0-3.682,1.205-4.408,2.917c-0.124,0.622-0.373,1.205-0.373,1.865v76.5c0,0.66,0.249,1.243,0.373,1.864 C364.475,300.014,366.177,301.219,368.156,301.219z"/><rect width="76.5" height="47.812" x="57.375" y="363.375"/><rect width="76.5" height="47.812" x="57.375" y="248.625"/><rect width="76.5" height="124.312" x="57.375"/><rect width="76.5" height="124.312" x="57.375" y="420.75"/><rect width="76.5" height="47.812" x="57.375" y="191.25"/><rect width="76.5" height="47.812" x="57.375" y="133.875"/><rect width="76.5" height="47.812" x="57.375" y="306"/><rect width="76.5" height="47.812" x="411.188" y="191.25"/><rect width="76.5" height="47.812" x="411.188" y="133.875"/><rect width="76.5" height="124.312" x="411.188"/><rect width="76.5" height="47.812" x="411.188" y="306"/><rect width="76.5" height="47.812" x="411.188" y="248.625"/><rect width="76.5" height="124.312" x="411.188" y="420.75"/><rect width="76.5" height="47.812" x="411.188" y="363.375"/><rect width="57.375" height="47.812" x="248.625" y="191.25"/><rect width="57.375" height="47.812" x="248.625" y="133.875"/><rect width="57.375" height="47.812" x="248.625" y="420.75"/><rect width="57.375" height="47.812" x="248.625" y="248.625"/><rect width="57.375" height="47.812" x="248.625" y="76.5"/><rect width="57.375" height="47.812" x="248.625" y="363.375"/><rect width="57.375" height="47.812" x="248.625" y="306"/></g></g></svg>