<svg xmlns="http://www.w3.org/2000/svg" xmlns:xlink="http://www.w3.org/1999/xlink" id="Capa_1" width="450.068" height="450.068" x="0" y="0" enable-background="new 0 0 450.068 450.068" version="1.1" viewBox="0 0 450.068 450.068" xml:space="preserve"><g><g><polygon points=".315 95.625 38.565 95.625 67.253 95.625 76.815 95.625 105.503 95.625 115.065 95.625 143.753 95.625 153.315 95.625 182.003 95.625 191.565 95.625 220.253 95.625 229.815 95.625 258.503 95.625 268.065 95.625 296.753 95.625 306.315 95.625 335.003 95.625 344.565 95.625 373.253 95.625 382.815 95.625 382.815 0 .315 0"/><polygon points="392.378 95.625 411.503 95.625 449.753 95.625 449.753 19.125 392.378 0"/><polygon points="9.878 450.068 38.565 430.943 38.565 105.188 9.878 105.188"/><polygon points="57.69 105.188 48.128 105.188 48.128 424.565 48.128 427.128 48.128 436.06 48.128 450.068 76.815 430.943 76.815 105.188 67.253 105.188"/><polygon points="95.94 105.188 86.378 105.188 86.378 424.565 86.378 427.128 86.378 436.06 86.378 450.068 115.065 430.943 115.065 105.188 105.503 105.188"/><polygon points="134.19 105.188 124.628 105.188 124.628 424.565 124.628 427.128 124.628 436.06 124.628 450.068 153.315 430.943 153.315 105.188 143.753 105.188"/><polygon points="172.44 105.188 162.878 105.188 162.878 424.565 162.878 427.128 162.878 436.06 162.878 450.068 191.565 430.943 191.565 105.188 182.003 105.188"/><polygon points="210.69 105.188 201.128 105.188 201.128 424.565 201.128 427.128 201.128 436.06 201.128 450.068 229.815 430.943 229.815 105.188 220.253 105.188"/><polygon points="248.94 105.188 239.378 105.188 239.378 424.565 239.378 427.128 239.378 436.06 239.378 450.068 268.065 430.943 268.065 105.188 258.503 105.188"/><polygon points="287.19 105.188 277.628 105.188 277.628 424.565 277.628 427.128 277.628 436.06 277.628 450.068 306.315 430.943 306.315 105.188 296.753 105.188"/><polygon points="325.44 105.188 315.878 105.188 315.878 424.565 315.878 427.128 315.878 436.06 315.878 450.068 344.565 430.943 344.565 105.188 335.003 105.188"/><polygon points="363.69 105.188 354.128 105.188 354.128 424.565 354.128 427.128 354.128 436.06 354.128 450.068 382.815 430.943 382.815 105.188 373.253 105.188"/><polygon points="401.94 105.188 392.378 105.188 392.378 424.565 392.378 427.128 392.378 436.06 392.378 450.068 440.19 418.188 440.19 105.188 411.503 105.188"/></g></g></svg>