<svg xmlns="http://www.w3.org/2000/svg" xmlns:xlink="http://www.w3.org/1999/xlink" id="Capa_1" width="105" height="105" x="0" y="0" enable-background="new 0 0 105 105" version="1.1" viewBox="0 0 105 105" xml:space="preserve"><g><path d="M0,31.5v42h105v-42H0z M35,66.5H8.75v-28H35V66.5z M66.5,66.5H40.25v-28H66.5V66.5z M98,66.5H71.75v-28H98V66.5z M14,64.75 h-3.5v-21H14V64.75z M19.25,64.75h-3.5v-21h3.5V64.75z M29.047,64.523l-8.771-19.083l3.181-1.463l8.771,19.083L29.047,64.523z M41.708,54.25h22.604c0,6.242-5.061,11.302-11.301,11.302C46.77,65.552,41.708,60.492,41.708,54.25z"/></g></svg>