<svg xmlns="http://www.w3.org/2000/svg" xmlns:xlink="http://www.w3.org/1999/xlink" id="Capa_1" width="612" height="612" x="0" y="0" enable-background="new 0 0 612 612" version="1.1" viewBox="0 0 612 612" xml:space="preserve"><g><rect width="66.938" height="28.688" x="28.688" y="363.375"/><rect width="66.938" height="28.688" x="506.812" y="363.375"/><path d="M592.875,219.938H19.125C8.559,219.938,0,228.496,0,239.062v95.625c0,10.566,8.559,19.125,19.125,19.125h573.75 c10.566,0,19.125-8.559,19.125-19.125v-95.625C612,228.496,603.441,219.938,592.875,219.938z M296.438,286.875H38.25v-28.688 h258.188V286.875z M411.188,304.174v-44.169l38.25,22.08L411.188,304.174z M516.375,306H497.25v-47.812h19.125V306z M545.062,306 h-19.125v-47.812h19.125V306z"/></g></svg>