<svg xmlns="http://www.w3.org/2000/svg" xmlns:xlink="http://www.w3.org/1999/xlink" id="Capa_1" width="504.832" height="504.832" x="0" y="0" enable-background="new 0 0 504.832 504.832" version="1.1" viewBox="0 0 504.832 504.832" xml:space="preserve"><g><path d="M399.439,185L252.655,79.335L105.871,184.522v287.831h58.809V364.775h87.975v107.578h146.784V185z M272.259,198.866h39.206 v39.206h-39.206V198.866z M272.259,247.635h39.206v48.769h-39.206V247.635z M360.233,296.403h-39.206v-48.769h39.206V296.403z M360.233,237.594h-39.206v-39.207h39.206V237.594z"/><path d="M369.796,124.757V32.479h-58.331v49.725l-58.81-42.075L4.03,219.425c-4.303,3.347-5.259,9.084-2.391,13.866 c1.913,2.869,4.781,3.825,8.128,3.825c1.913,0,3.825-0.479,5.738-1.913l237.15-171.169l237.15,171.169 c4.303,2.869,10.519,1.913,13.387-2.391c2.869-4.303,1.913-10.519-2.391-13.388L369.796,124.757z"/></g></svg>