<svg xmlns="http://www.w3.org/2000/svg" xmlns:xlink="http://www.w3.org/1999/xlink" id="Capa_1" width="407.209" height="407.209" x="0" y="0" enable-background="new 0 0 407.209 407.209" version="1.1" viewBox="0 0 407.209 407.209" xml:space="preserve"><g><path d="M53.789,406.97h105.188v-76.5h86.062v76.5h95.625V167.908H53.789V406.97z M302.414,196.595v66.938h-28.688v-66.938H302.414 z M225.914,196.595h28.688v66.938h-28.688V196.595z M168.539,196.595v66.938h-28.688v-66.938H168.539z M92.039,196.595h28.688 v66.938H92.039V196.595z"/><polygon points="321.539 79.722 321.539 5.345 264.164 5.345 264.164 35.17"/><polygon points="264.164 47.267 203.604 .239 0 158.345 53.789 158.345 340.664 158.345 407.209 158.345 321.539 91.819"/></g></svg>