<svg xmlns="http://www.w3.org/2000/svg" xmlns:xlink="http://www.w3.org/1999/xlink" id="Capa_1" width="497.25" height="497.25" x="0" y="0" enable-background="new 0 0 497.25 497.25" version="1.1" viewBox="0 0 497.25 497.25" xml:space="preserve"><g><path d="M291.656,267.75c10.566,0,19.125-8.559,19.125-19.125l19.125-229.5C329.906,8.559,321.348,0,310.781,0H186.469 c-10.566,0-19.125,8.559-19.125,19.125l19.125,229.5c0,10.566,8.559,19.125,19.125,19.125h9.562v159.455 c-25.771,14.276-43.576,42.84-43.815,70.045h156.979c-0.249-28.037-19.154-57.547-46.216-71.336V267.75H291.656z M272.531,112.359 c12.546,0,22.711,10.165,22.711,22.711s-10.165,22.711-22.711,22.711s-22.711-10.165-22.711-22.711 S259.985,112.359,272.531,112.359z M272.531,179.297c12.546,0,22.711,10.165,22.711,22.711s-10.165,22.711-22.711,22.711 s-22.711-10.165-22.711-22.711S259.985,179.297,272.531,179.297z"/></g></svg>