<svg xmlns="http://www.w3.org/2000/svg" xmlns:xlink="http://www.w3.org/1999/xlink" id="Capa_1" width="468.525" height="468.524" x="0" y="0" enable-background="new 0 0 468.525 468.524" version="1.1" viewBox="0 0 468.525 468.524" xml:space="preserve"><g><g><path d="M161.458,468.524c22.893-50.193,38.212-141.42,38.212-245.661c0-60.349-5.145-116.309-13.904-162.505L71.112,0 c-17.863,52.565-29.29,132.852-29.29,222.864c0,104.231,15.31,195.458,38.212,245.661H161.458z"/><path d="M227.095,389.5c0,32.475,16.142,61.181,40.898,79.024h117.811c24.757-17.844,40.898-46.55,40.898-79.024 c0-24.566-9.266-46.971-24.461-64.174L259.197,317.6C239.507,335.51,227.095,361.052,227.095,389.5z"/></g></g></svg>