<svg xmlns="http://www.w3.org/2000/svg" xmlns:xlink="http://www.w3.org/1999/xlink" id="Capa_1" width="612" height="612" x="0" y="0" enable-background="new 0 0 612 612" version="1.1" viewBox="0 0 612 612" xml:space="preserve"><g><rect width="95.625" height="28.688" x="162.562" y="583.312"/><rect width="95.625" height="28.688" x="353.812" y="583.312"/><path d="M162.562,191.25h286.875c21.124,0,38.25-17.126,38.25-38.25V38.25c0-21.124-17.126-38.25-38.25-38.25H162.562 c-21.124,0-38.25,17.126-38.25,38.25V153C124.312,174.124,141.439,191.25,162.562,191.25z M162.562,57.375 c0-5.278,4.284-9.562,9.562-9.562s9.562,4.284,9.562,9.562v66.938c0,5.278-4.284,9.562-9.562,9.562s-9.562-4.284-9.562-9.562 V57.375z"/><path d="M162.562,564.188h286.875c21.124,0,38.25-17.127,38.25-38.25v-267.75c0-21.124-17.126-38.25-38.25-38.25H162.562 c-21.124,0-38.25,17.126-38.25,38.25v267.75C124.312,547.061,141.439,564.188,162.562,564.188z M162.562,258.188 c0-5.278,4.284-9.562,9.562-9.562s9.562,4.284,9.562,9.562v66.938c0,5.278-4.284,9.562-9.562,9.562s-9.562-4.284-9.562-9.562 V258.188z"/></g></svg>