<svg xmlns="http://www.w3.org/2000/svg" xmlns:xlink="http://www.w3.org/1999/xlink" id="Capa_1" width="584.747" height="584.747" x="0" y="0" enable-background="new 0 0 584.747 584.747" version="1.1" viewBox="0 0 584.747 584.747" xml:space="preserve"><g><g><path d="M408.558,7.172c0-3.825-1.435-7.172-5.259-7.172c-2.869,0-5.26,2.869-5.26,7.172v346.641l10.041,1.913V7.172H408.558z"/><polygon points="333.971 568.013 417.643 434.616 342.576 413.101 317.714 421.706 131.245 488.644 328.711 573.272"/><polygon points="330.623 349.987 118.336 480.994 334.927 404.494"/><polygon points="423.38 425.531 454.458 375.328 418.599 368.156 408.558 366.244 398.039 363.854 387.998 361.94 345.445 353.335 348.792 404.016"/><polygon points="457.805 389.194 453.502 396.844 433.42 428.4 430.552 433.182 429.596 434.138 427.683 437.484 363.614 540.281 335.883 584.747 464.021 448.003 466.411 445.135 462.107 382.5"/></g></g></svg>