<svg xmlns="http://www.w3.org/2000/svg" xmlns:xlink="http://www.w3.org/1999/xlink" id="Capa_1" width="441.166" height="441.166" x="0" y="0" enable-background="new 0 0 441.166 441.166" version="1.1" viewBox="0 0 441.166 441.166" xml:space="preserve"><g><path d="M0,408.673h19.125v-19.125h9.562v19.125h9.562v-9.562h9.562v9.562h9.562v-19.125h9.562v19.125H76.5v-9.562h9.562v9.562 h9.562v-19.125h9.562v19.125h9.562v-9.562h9.562v9.562h9.562v-19.125h9.562v19.125H153v-9.562h9.562v9.562h9.562v-19.125h9.562 v19.125h9.562v-9.562h9.562v9.562h9.562v-19.125h9.562v19.125h9.562v-9.562h9.562v9.562h9.562v-19.125h9.562v19.125h9.562v-9.562 h9.562v9.562h9.562v-19.125h9.562v19.125H306v-9.562h9.562v9.562h9.562v-19.125h9.562v19.125h9.562v-9.562h9.562v9.562h9.562 v-19.125h9.562v19.125h9.562v-9.562h9.562v9.562h49.104L0,32.493V408.673z M86.062,193.468l184.365,148.267H86.062V193.468z"/></g></svg>