<svg xmlns="http://www.w3.org/2000/svg" xmlns:xlink="http://www.w3.org/1999/xlink" id="Capa_1" width="573.75" height="573.75" x="0" y="0" enable-background="new 0 0 573.75 573.75" version="1.1" viewBox="0 0 573.75 573.75" xml:space="preserve"><g><polygon points="344.25 573.75 363.375 439.875 200.812 439.875 219.938 573.75"/><path d="M296.438,315.084c82.658-4.972,148.219-73.382,148.219-157.303C444.656,70.638,374.018,0,286.875,0 c-87.143,0-157.781,70.638-157.781,157.781c0,80.65,60.55,147.052,138.656,156.51v87.334h-87.66l11.16,28.688h181.688l13.55-28.688 h-90.05v-86.062V315.084z M286.875,315.562h-17.193l0.048-0.966l3.873-75.534l0.201-3.854l-70.6-77.428l71.776,54.411l4.073-79.464 l-50.748-49.056l51.513,34.052l3.471-67.779l3.586,72.446l2.668,53.904l96.944-35.248l-95.615,61.965l1.778,36.051l3.759,76.5 H286.875z"/></g></svg>