<svg xmlns="http://www.w3.org/2000/svg" enable-background="new 0 0 64 64" viewBox="0 0 64 64"><path fill="#ff4545" d="m4.5 8.5h13v43h-13z"/><path fill="#d82b2b" d="M17,9v42H5V9H17 M18,8H4v44h14V8L18,8z"/><path fill="#70ce2e" d="m20.5 8.5h13v43h-13z"/><path fill="#62b224" d="m33 9v42h-12v-42h12m1-1h-14v44h14v-44z"/><path fill="#1e82ff" d="m34.8 11.8l12.3-4.3 14.3 40.5-12.3 4.3-14.3-40.5"/><path fill="#1271d8" d="m46.8 8.1l14 39.6-11.3 4-14-39.6 11.3-4m.6-1.3l-13.2 4.7 14.6 41.5 13.2-4.7-14.6-41.5z"/><g fill="#828b7d"><circle cx="11" cy="44" r="3"/><circle cx="27" cy="44" r="3"/><circle cx="52.7" cy="43.1" r="3"/></g><circle cx="11" cy="44" r="2"/><circle cx="27" cy="44" r="2"/><circle cx="52.7" cy="43.1" r="2"/><g fill="#e7f4f5"><path d="m6 14h10v16h-10z"/><path d="m22 14h10v16h-10z"/><path d="m52.8 28.3l-9.4 3.3-5.4-15.1 9.4-3.3 5.4 15.1"/></g><g fill="#c8c8c8"><path d="m7 21h8v1h-8z"/><path d="m7 24h8v1h-8z"/><path d="m7 27h8v1h-8z"/><path d="m23 21h8v1h-8z"/><path d="m23 24h8v1h-8z"/><path d="m23 27h8v1h-8z"/><path d="m41.4 22.7l7.5-2.7.3.9-7.5 2.7-.3-.9"/><path d="m42.3 25.5l7.5-2.7.3.9-7.5 2.7-.3-.9"/><path d="m43.4 28.4l7.5-2.7.3.9-7.5 2.7-.3-.9"/></g><path fill="#fadc00" d="m8 16h6v3h-6z"/><path fill="#ff845c" d="m24 16h6v3h-6z"/><path fill="#5fbc15" d="m40.6 17.7l5.7-2 1 2.8-5.7 2-1-2.8"/></svg>