<svg xmlns="http://www.w3.org/2000/svg" xmlns:xlink="http://www.w3.org/1999/xlink" enable-background="new 0 0 64 64" viewBox="0 0 64 64"><defs><clipPath id="0"><use xlink:href="#1"/></clipPath><ellipse id="1" cx="25" cy="40" rx="8" ry="2"/><radialGradient id="3" cx="35" cy="33" r="5.831" gradientTransform="matrix(1 0 0 .25 0 24.75)" gradientUnits="userSpaceOnUse" xlink:href="#4"/><radialGradient id="2" cx="25" cy="40.08" r="5.831" gradientTransform="matrix(1 0 0 .25 0 30.0599)" gradientUnits="userSpaceOnUse" xlink:href="#4"/><radialGradient id="4" cx="19" cy="28" r="5.831" gradientTransform="matrix(1 0 0 .25 0 21)" gradientUnits="userSpaceOnUse"><stop stop-color="#f0f0f0"/><stop offset="1" stop-color="#a0a0a0"/></radialGradient></defs><path fill="#315c99" d="m7 20.5c-.2 0-.38-.12-.46-.31s-.03-.4.11-.54l4-4c.09-.09.22-.15.35-.15h26c.2 0 .38.12.46.31s.03.4-.11.54l-4 4c-.09.09-.22.15-.35.15h-26"/><path fill="#172982" d="m37 16l-4 4h-26l4-4h26m0-1h-26c-.27 0-.52.11-.71.29l-4 4c-.29.29-.37.72-.22 1.09.16.38.53.62.93.62h26c.27 0 .52-.11.71-.29l4-4c.29-.29.37-.72.22-1.09-.16-.38-.53-.62-.93-.62z"/><path fill="#ffd773" d="m27 7.5c-.2 0-.38-.12-.46-.31s-.03-.4.11-.54l4-4c.09-.1.22-.15.35-.15h26c.2 0 .38.12.46.31s.03.4-.11.54l-4 4c-.09.1-.22.15-.35.15h-26"/><path fill="#e5b12e" d="m57 3l-4 4h-26l4-4h26m0-1h-26c-.27 0-.52.11-.71.29l-4 4c-.29.29-.37.72-.22 1.09.16.38.53.62.93.62h26c.27 0 .52-.11.71-.29l4-4c.29-.29.37-.72.22-1.09-.16-.38-.53-.62-.93-.62z"/><path fill="#efbd50" d="m53 45.5c-.08 0-.15-.02-.22-.05-.17-.08-.28-.26-.28-.45v-38c0-.13.05-.26.15-.35l4-4c.1-.1.22-.15.35-.15.06 0 .13.01.19.04.19.08.31.26.31.46v39c0 .16-.07.31-.2.4l-4 3c-.09.07-.19.1-.3.1"/><path fill="#e5b12e" d="m57 3v39l-4 3v-38l4-4m0-1c-.26 0-.52.1-.71.29l-4 4c-.18.19-.29.44-.29.71v38c0 .38.21.73.55.89.14.08.3.11.45.11.21 0 .42-.07.6-.2l4-3c.25-.19.4-.49.4-.8v-39c0-.4-.24-.77-.62-.92-.12-.06-.25-.08-.38-.08z"/><path fill="#294a84" d="m6.5 19.5h23v21h-23z"/><path fill="#172982" d="m29 20v20h-22v-20h22m1-1h-1-22-1v1 20 1h1 22 1v-1-20-1z"/><path fill="#6690cc" d="m8 21h20v18h-20z"/><path fill="#ffd45c" d="m26.5 6.5h27v39h-27z"/><path fill="#e5b12e" d="m53 7v38h-26v-38h26m1-1h-1-26-1v1 38 1h1 26 1v-1-38-1z"/><path fill="#ffe3a6" d="m29 9h22v34h-22z"/><path fill="#666" d="m27 28v19h-.01c0 .02.01.03.01.05 0 1.1-3.58 2-8 2s-8-.9-8-2c0-.02.01-.03.01-.05h-.01v-19h16m0-1h-16c-.55 0-1 .45-1 1v19c0 .01 0 .02 0 .02 0 .01 0 .01 0 .02 0 2.86 7.5 3 9 3s9-.14 9-3c0-.01 0-.01 0-.02 0-.01 0-.02 0-.02v-19c0-.55-.45-1-1-1z"/><g fill="#66ccca"><ellipse cx="19" cy="47" rx="8" ry="2"/><path d="m11 28h16v19h-16z"/></g><g fill="#fcb11a"><ellipse cx="19" cy="37" rx="8" ry="2"/><path d="m11 28h16v9h-16z"/></g><path fill="#e54545" d="m19.5 42h-1c-1.38 0-2.5-1.12-2.5-2.5v-1c0-1.37 1.12-2.5 2.5-2.5h1c1.38 0 2.5 1.12 2.5 2.5v1c0 1.38-1.12 2.5-2.5 2.5"/><ellipse cx="19" cy="28" fill="url(#4)" rx="8" ry="2"/><g fill="#666"><path d="m19 26c4.42 0 8 .9 8 2s-3.58 2-8 2-8-.9-8-2 3.58-2 8-2m0-1c-1.5 0-9 .14-9 3s7.5 3 9 3 9-.14 9-3-7.5-3-9-3z"/><path d="m43 32.95v19h-.01c0 .02.01.03.01.05 0 1.1-3.58 2-8 2s-8-.9-8-2c0-.02.01-.03.01-.05h-.01v-19h16m0-1h-16c-.55 0-1 .45-1 1v19c0 .01 0 .02 0 .02 0 .01 0 .01 0 .02 0 2.86 7.5 3 9 3s9-.14 9-3c0-.01 0-.01 0-.02 0-.01 0-.02 0-.02v-19c0-.55-.45-1-1-1z"/></g><g fill="#0056bc"><ellipse cx="35" cy="52" rx="8" ry="2"/><path d="m27 33h16v19h-16z"/></g><g fill="#2fa528"><ellipse cx="35" cy="42.08" rx="8" ry="2"/><path d="m27 33h16v9h-16z"/></g><path fill="#ff80e7" d="m35.5 47h-1c-1.37 0-2.5-1.12-2.5-2.5v-1c0-1.37 1.12-2.5 2.5-2.5h1c1.37 0 2.5 1.12 2.5 2.5v1c0 1.38-1.12 2.5-2.5 2.5"/><ellipse cx="35" cy="33" fill="url(#3)" rx="8" ry="2"/><g fill="#666"><path d="m35 31c4.42 0 8 .9 8 2s-3.58 2-8 2-8-.9-8-2 3.58-2 8-2m0-1c-1.5 0-9 .14-9 3s7.5 3 9 3 9-.14 9-3-7.5-3-9-3z"/><path d="m33 39.95v19h-.01c0 .02.01.03.01.05 0 1.1-3.58 2-8 2s-8-.9-8-2c0-.02.01-.03.01-.05h-.01v-19h16m0-1h-16c-.55 0-1 .45-1 1v19c0 .01 0 .02 0 .02 0 .01 0 .01 0 .02 0 2.86 7.5 3 9 3s9-.14 9-3c0-.01 0-.01 0-.02 0-.01 0-.02 0-.02v-19c0-.55-.45-1-1-1z"/></g><g fill="#f5f5f5"><ellipse cx="25" cy="59" rx="8" ry="2"/><path d="m17 40h16v19h-16z"/></g><g fill="#c80028"><ellipse cx="25" cy="49" rx="8" ry="2"/><path d="m17 40h16v9h-16z"/></g><path fill="#ffd35c" d="m25.5 54h-1c-1.38 0-2.5-1.12-2.5-2.5v-1c0-1.37 1.12-2.5 2.5-2.5h1c1.38 0 2.5 1.12 2.5 2.5v1c0 1.38-1.12 2.5-2.5 2.5"/><ellipse cx="25" cy="40.08" fill="url(#2)" rx="8" ry="2"/><path fill="#666" d="m25 38c4.42 0 8 .9 8 2s-3.58 2-8 2-8-.9-8-2 3.58-2 8-2m0-1c-1.5 0-9 .14-9 3s7.5 3 9 3 9-.14 9-3-7.5-3-9-3z"/><g fill="#a0a0a0"><path d="m17 38h16v4h-16z" clip-path="url(#0)"/><ellipse cx="25" cy="40" clip-path="url(#0)" rx="5.83" ry="1.46"/></g><ellipse cx="25" cy="40" fill="#a1a1a1" clip-path="url(#0)" rx="5.76" ry="1.44"/><ellipse cx="25" cy="40" fill="#a2a2a2" clip-path="url(#0)" rx="5.69" ry="1.42"/><ellipse cx="25" cy="40" fill="#a3a3a3" clip-path="url(#0)" rx="5.61" ry="1.4"/><ellipse cx="25" cy="40" fill="#a4a4a4" clip-path="url(#0)" rx="5.54" ry="1.38"/><ellipse cx="25" cy="40" fill="#a5a5a5" clip-path="url(#0)" rx="5.47" ry="1.37"/><ellipse cx="25" cy="40" fill="#a6a6a6" clip-path="url(#0)" rx="5.39" ry="1.35"/><ellipse cx="25" cy="40" fill="#a7a7a7" clip-path="url(#0)" rx="5.32" ry="1.33"/><ellipse cx="25" cy="40" fill="#a8a8a8" clip-path="url(#0)" rx="5.25" ry="1.31"/><ellipse cx="25" cy="40" fill="#a9a9a9" clip-path="url(#0)" rx="5.17" ry="1.29"/><ellipse cx="25" cy="40" fill="#aaa" clip-path="url(#0)" rx="5.1" ry="1.28"/><ellipse cx="25" cy="40" fill="#ababab" clip-path="url(#0)" rx="5.03" ry="1.26"/><ellipse cx="25" cy="40" fill="#acacac" clip-path="url(#0)" rx="4.96" ry="1.24"/><ellipse cx="25" cy="40" fill="#adadad" clip-path="url(#0)" rx="4.88" ry="1.22"/><ellipse cx="25" cy="40" fill="#aeaeae" clip-path="url(#0)" rx="4.81" ry="1.2"/><ellipse cx="25" cy="40" fill="#afafaf" clip-path="url(#0)" rx="4.74" ry="1.18"/><ellipse cx="25" cy="40" fill="#b0b0b0" clip-path="url(#0)" rx="4.66" ry="1.17"/><ellipse cx="25" cy="40" fill="#b1b1b1" clip-path="url(#0)" rx="4.59" ry="1.15"/><ellipse cx="25" cy="40" fill="#b2b2b2" clip-path="url(#0)" rx="4.52" ry="1.13"/><ellipse cx="25" cy="40" fill="#b3b3b3" clip-path="url(#0)" rx="4.45" ry="1.11"/><ellipse cx="25" cy="40" fill="#b4b4b4" clip-path="url(#0)" rx="4.37" ry="1.09"/><ellipse cx="25" cy="40" fill="#b5b5b5" clip-path="url(#0)" rx="4.3" ry="1.08"/><ellipse cx="25" cy="40" fill="#b6b6b6" clip-path="url(#0)" rx="4.23" ry="1.06"/><ellipse cx="25" cy="40" fill="#b7b7b7" clip-path="url(#0)" rx="4.15" ry="1.04"/><ellipse cx="25" cy="40" fill="#b8b8b8" clip-path="url(#0)" rx="4.08" ry="1.02"/><ellipse cx="25" cy="40" fill="#b9b9b9" clip-path="url(#0)" rx="4.01" ry="1"/><ellipse cx="25" cy="40" fill="#bababa" clip-path="url(#0)" rx="3.94" ry=".98"/><ellipse cx="25" cy="40" fill="#bbb" clip-path="url(#0)" rx="3.86" ry=".97"/><ellipse cx="25" cy="40" fill="#bcbcbc" clip-path="url(#0)" rx="3.79" ry=".95"/><ellipse cx="25" cy="40" fill="#bdbdbd" clip-path="url(#0)" rx="3.72" ry=".93"/><ellipse cx="25" cy="40" fill="#bebebe" clip-path="url(#0)" rx="3.64" ry=".91"/><ellipse cx="25" cy="40" fill="#bfbfbf" clip-path="url(#0)" rx="3.57" ry=".89"/><ellipse cx="25" cy="40" fill="silver" clip-path="url(#0)" rx="3.5" ry=".87"/><ellipse cx="25" cy="40" fill="#c1c1c1" clip-path="url(#0)" rx="3.43" ry=".86"/><ellipse cx="25" cy="40" fill="#c2c2c2" clip-path="url(#0)" rx="3.35" ry=".84"/><ellipse cx="25" cy="40" fill="#c3c3c3" clip-path="url(#0)" rx="3.28" ry=".82"/><ellipse cx="25" cy="40" fill="#c4c4c4" clip-path="url(#0)" rx="3.21" ry=".8"/><ellipse cx="25" cy="40" fill="#c5c5c5" clip-path="url(#0)" rx="3.13" ry=".78"/><ellipse cx="25" cy="40" fill="#c6c6c6" clip-path="url(#0)" rx="3.06" ry=".77"/><ellipse cx="25" cy="40" fill="#c7c7c7" clip-path="url(#0)" rx="2.99" ry=".75"/><ellipse cx="25" cy="40" fill="#c8c8c8" clip-path="url(#0)" rx="2.92" ry=".73"/><ellipse cx="25" cy="40" fill="#c9c9c9" clip-path="url(#0)" rx="2.84" ry=".71"/><ellipse cx="25" cy="40" fill="#cacaca" clip-path="url(#0)" rx="2.77" ry=".69"/><ellipse cx="25" cy="40" fill="#cbcbcb" clip-path="url(#0)" rx="2.7" ry=".67"/><ellipse cx="25" cy="40" fill="#ccc" clip-path="url(#0)" rx="2.62" ry=".66"/><ellipse cx="25" cy="40" fill="#cdcdcd" clip-path="url(#0)" rx="2.55" ry=".64"/><ellipse cx="25" cy="40" fill="#cecece" clip-path="url(#0)" rx="2.48" ry=".62"/><ellipse cx="25" cy="40" fill="#cfcfcf" clip-path="url(#0)" rx="2.41" ry=".6"/><ellipse cx="25" cy="40" fill="#d0d0d0" clip-path="url(#0)" rx="2.33" ry=".58"/><ellipse cx="25" cy="40" fill="#d2d2d2" clip-path="url(#0)" rx="2.26" ry=".56"/><ellipse cx="25" cy="40" fill="#d3d3d3" clip-path="url(#0)" rx="2.19" ry=".55"/><ellipse cx="25" cy="40" fill="#d4d4d4" clip-path="url(#0)" rx="2.11" ry=".53"/><ellipse cx="25" cy="40" fill="#d5d5d5" clip-path="url(#0)" rx="2.04" ry=".51"/><ellipse cx="25" cy="40" fill="#d6d6d6" clip-path="url(#0)" rx="1.97" ry=".49"/><ellipse cx="25" cy="40" fill="#d7d7d7" clip-path="url(#0)" rx="1.9" ry=".47"/><ellipse cx="25" cy="40" fill="#d8d8d8" clip-path="url(#0)" rx="1.82" ry=".46"/><ellipse cx="25" cy="40" fill="#d9d9d9" clip-path="url(#0)" rx="1.75" ry=".44"/><ellipse cx="25" cy="40" fill="#dadada" clip-path="url(#0)" rx="1.68" ry=".42"/><ellipse cx="25" cy="40" fill="#dbdbdb" clip-path="url(#0)" rx="1.6" ry=".4"/><ellipse cx="25" cy="40" fill="#dcdcdc" clip-path="url(#0)" rx="1.53" ry=".38"/><ellipse cx="25" cy="40" fill="#ddd" clip-path="url(#0)" rx="1.46" ry=".36"/><ellipse cx="25" cy="40" fill="#dedede" clip-path="url(#0)" rx="1.38" ry=".35"/><ellipse cx="25" cy="40" fill="#dfdfdf" clip-path="url(#0)" rx="1.31" ry=".33"/><ellipse cx="25" cy="40" fill="#e0e0e0" clip-path="url(#0)" rx="1.24" ry=".31"/><ellipse cx="25" cy="40" fill="#e1e1e1" clip-path="url(#0)" rx="1.17" ry=".29"/><ellipse cx="25" cy="40" fill="#e2e2e2" clip-path="url(#0)" rx="1.09" ry=".27"/><ellipse cx="25" cy="40" fill="#e3e3e3" clip-path="url(#0)" rx="1.02" ry=".26"/><ellipse cx="25" cy="40" fill="#e4e4e4" clip-path="url(#0)" rx=".95" ry=".24"/><ellipse cx="25" cy="40" fill="#e5e5e5" clip-path="url(#0)" rx=".87" ry=".22"/><ellipse cx="25" cy="40" fill="#e6e6e6" clip-path="url(#0)" rx=".8" ry=".2"/><ellipse cx="25" cy="40" fill="#e7e7e7" clip-path="url(#0)" rx=".73" ry=".18"/><ellipse cx="25" cy="40" fill="#e8e8e8" clip-path="url(#0)" rx=".66" ry=".16"/><ellipse cx="25" cy="40" fill="#e9e9e9" clip-path="url(#0)" rx=".58" ry=".15"/><ellipse cx="25" cy="40" fill="#eaeaea" clip-path="url(#0)" rx=".51" ry=".13"/><ellipse cx="25" cy="40" fill="#ebebeb" clip-path="url(#0)" rx=".44" ry=".11"/><ellipse cx="25" cy="40" fill="#ececec" clip-path="url(#0)" rx=".36" ry=".09"/><ellipse cx="25" cy="40" fill="#ededed" clip-path="url(#0)" rx=".29" ry=".07"/><ellipse cx="25" cy="40" fill="#eee" clip-path="url(#0)" rx=".22" ry=".05"/><ellipse cx="25" cy="40" fill="#efefef" clip-path="url(#0)" rx=".15" ry=".04"/><ellipse cx="25" cy="40" fill="#f0f0f0" clip-path="url(#0)" rx=".07" ry=".02"/></svg>