<svg xmlns="http://www.w3.org/2000/svg" enable-background="new 0 0 64 64" viewBox="0 0 64 64"><path fill="#f5f5f5" d="m4.5 4.5h55v55h-55z"/><path fill="#c8c8c8" d="m59 5v54h-54v-54h54m1-1h-1-54-1v1 54 1h1 54 1v-1-54-1z"/><path fill="#212121" d="m13.5 42.5h10v6h-10z"/><path fill="#dcdcdc" d="m23 43v5h-9v-5h9m1-1h-1-9-1v1 5 1h1 9 1v-1-5-1z"/><path fill="#212121" d="m40.5 42.5h10v6h-10z"/><path fill="#dcdcdc" d="m50 43v5h-9v-5h9m1-1h-1-9-1v1 5 1h1 9 1v-1-5-1z"/><path fill="#212121" d="m29.5 12.5h5v11h-5z"/><path fill="#dcdcdc" d="m34 13v10h-4v-10h4m1-1h-1-4-1v1 10 1h1 4 1v-1-10-1z"/></svg>