<svg xmlns="http://www.w3.org/2000/svg" xmlns:xlink="http://www.w3.org/1999/xlink" enable-background="new 0 0 64 64" viewBox="0 0 64 64"><defs><linearGradient id="0" x1="54.364" x2="9.636" y1="9.636" y2="54.364" gradientUnits="userSpaceOnUse"><stop stop-color="#f8f5e5"/><stop offset="1" stop-color="#cac7b9"/></linearGradient><linearGradient id="1" x2="0" y1="15" y2="49" gradientUnits="userSpaceOnUse"><stop stop-color="#4e493f"/><stop offset=".768" stop-color="#3b3732"/></linearGradient><linearGradient id="2" x1="49.344" x2="14.656" y1="42.014" y2="21.986" gradientUnits="userSpaceOnUse" xlink:href="#0"/></defs><path fill="url(#0)" stroke="#7c715e" stroke-miterlimit="10" stroke-width=".25" d="m16 7h32c4.97 0 9 4.03 9 9v32c0 4.97-4.03 9-9 9h-32c-4.97 0-9-4.03-9-9v-32c0-4.97 4.03-9 9-9z"/><path fill="url(#1)" d="m44 49h-24c-2.76 0-5-2.24-5-5v-24c0-2.76 2.24-5 5-5h24c2.76 0 5 2.24 5 5v24c0 2.76-2.24 5-5 5"/><path fill="url(#2)" stroke="#7c715e" stroke-miterlimit="10" stroke-width=".25" d="m21 16h22c2.76 0 5 2.24 5 5v22c0 2.76-2.24 5-5 5h-22c-2.76 0-5-2.24-5-5v-22c0-2.76 2.24-5 5-5z"/></svg>