<svg xmlns="http://www.w3.org/2000/svg" xmlns:xlink="http://www.w3.org/1999/xlink" viewBox="0 0 64 64"><defs><path id="0" d="m45.896 1023.6c0 7.7323-6.2677 14-13.999 14-7.7316 0-13.999-6.268-13.999-14s6.2677-14.001 13.999-14.001c7.7316 0 13.999 6.2687 13.999 14.001"/><path id="1" fill="none" d="m46 62.362c0 3.866-3.134 7-7 7s-7-3.134-7-7 3.134-7 7-7 7 3.134 7 7"/><linearGradient id="3" x2="0" y1="73.362" y2="70.362" gradientTransform="matrix(1.9998887 0 0 2.0000677-47.871459 861.62697)" gradientUnits="userSpaceOnUse"><stop stop-color="#fff"/><stop offset="1" stop-color="#cdcdcd"/></linearGradient><linearGradient id="4" x2="0" y1="48.362" y2="51.362" gradientTransform="matrix(1.9998887 0 0 1.3168561-47.993281 934.69788)" gradientUnits="userSpaceOnUse"><stop stop-color="#a6a6a6"/><stop offset="1" stop-color="#828282" stop-opacity="0"/></linearGradient><linearGradient id="2" x2="0" y1="73.362" y2="70.362" gradientTransform="matrix(1.9998887 0 0 1.2424276-47.993281 955.21738)" gradientUnits="userSpaceOnUse"><stop stop-color="#fff"/><stop offset="1" stop-color="#ccc"/></linearGradient><radialGradient id="5" cx="39" cy="62.362" r="7" gradientTransform="matrix(1.9998887 0 0 2.0000677-46.099351 898.87761)" gradientUnits="userSpaceOnUse"><stop stop-color="#919191"/><stop offset="1" stop-color="#e4e4e4"/></radialGradient><radialGradient id="6" cx="41.416" cy="62.398" r="7" gradientTransform="matrix(1.2081928 0 0 2.0310325-9.4645969 896.94657)" gradientUnits="userSpaceOnUse"><stop stop-color="#919191"/><stop offset="1" stop-color="#fff"/></radialGradient></defs><g transform="translate(0-988.36218)"><path fill="#fff" d="m12.253 994.45h9.187 30.498v51.689h-39.685z" color="#000"/><use fill="url(#5)" xlink:href="#0"/><g fill="#d3d3d3"><path id="7" d="m34 996.36h4v4h-4z"/><path id="8" d="m40 996.36h4v4h-4z"/><path id="9" d="m46 996.36h4v4h-4z"/></g><use fill="url(#5)" xlink:href="#0"/><path fill="#c4c4c4" d="m22 994.36h2v8h-2z"/><path fill="url(#3)" d="m12 1002.4h40v6h-40z"/><path fill="url(#2)" d="m12 1042.4h40v4h-40z"/><use stroke="silver" transform="matrix(1.9998887 0 0 2.0000677-46.099351 898.87761)" xlink:href="#1"/><path fill="url(#4)" d="m14 998.36h6v4h-6z"/><path fill="#969696" d="m10 992.36v56h44l.000001-56zm2 2h40v52h-40z" color="#000"/><g transform="matrix(1.9998887 0 0 2.0000677-46.099351 898.87761)"><use stroke="silver" xlink:href="#1"/><use stroke="#4c4c4c" xlink:href="#1"/></g><path fill="#939393" d="m17 1020.4h5v6h-5z"/><path fill="#fff" d="m16.602 1020.3h5.4005v6.04h-5.4005z"/><use stroke="#9b9b9b" transform="matrix(1.9998887 0 0 2.0000677-46.099351 898.87761)" xlink:href="#1"/><g fill="#b8b8b8"><use xlink:href="#8"/><use xlink:href="#9"/><use xlink:href="#7"/></g><use fill="url(#5)" xlink:href="#0"/><path fill="url(#6)" d="m46.112 1023.6c0 7.8521-3.7865 14.217-8.4574 14.217s-8.4574-6.365-8.4574-14.217c0-7.8519 3.7865-14.217 8.4574-14.217s8.4574 6.3653 8.4574 14.217"/><use stroke="#4b4b4b" stroke-width="1.383" transform="matrix(1.2081928 0 0 2.0310325-9.4645969 896.94657)" xlink:href="#1"/><path fill="#939393" d="m29 1020.4h3v6h-3z"/></g></svg>