<svg xmlns="http://www.w3.org/2000/svg" xmlns:xlink="http://www.w3.org/1999/xlink" viewBox="0 0 64 64"><defs><path id="0" fill="none" d="m46 62.362c0 3.866-3.134 7-7 7s-7-3.134-7-7 3.134-7 7-7 7 3.134 7 7"/><linearGradient id="2" x2="0" y1="73.362" y2="70.362" gradientTransform="matrix(1.9998887 0 0 2.0000677-47.871459 861.62697)" gradientUnits="userSpaceOnUse"><stop stop-color="#fff"/><stop offset="1" stop-color="#cdcdcd"/></linearGradient><linearGradient id="3" x2="0" y1="48.362" y2="51.362" gradientTransform="matrix(1.9998887 0 0 1.3168561-47.993281 934.69788)" gradientUnits="userSpaceOnUse"><stop stop-color="#a6a6a6"/><stop offset="1" stop-color="#828282" stop-opacity="0"/></linearGradient><linearGradient id="1" x2="0" y1="73.362" y2="70.362" gradientTransform="matrix(1.9998887 0 0 1.2424276-47.993281 955.21738)" gradientUnits="userSpaceOnUse"><stop stop-color="#fff"/><stop offset="1" stop-color="#ccc"/></linearGradient><radialGradient id="4" cx="39" cy="62.362" r="7" gradientTransform="matrix(1.9998887 0 0 2.0000677-46.099351 898.87761)" gradientUnits="userSpaceOnUse"><stop stop-color="#919191"/><stop offset="1" stop-color="#e4e4e4"/></radialGradient></defs><g transform="translate(0-988.36218)"><path fill="#fff" d="m12.253 994.45h9.187 30.498v51.689h-39.685z" color="#000"/><path id="5" fill="url(#4)" d="m45.896 1023.6c0 7.7323-6.2677 14-13.999 14-7.7316 0-13.999-6.268-13.999-14s6.2677-14.001 13.999-14.001c7.7316 0 13.999 6.2687 13.999 14.001"/><g fill="#d3d3d3"><path id="6" d="m34 996.36h4v4h-4z"/><path d="m40 996.36h4v4h-4z"/><path id="7" d="m46 996.36h4v4h-4z"/></g><use xlink:href="#5"/><path fill="#ffa5a5" d="m38 994.36h8v8h-8z"/><path fill="#ff0505" d="m40 996.36h4v4h-4z"/><g fill="#b8b8b8"><use xlink:href="#7"/><use xlink:href="#6"/></g><path fill="#bd0000" d="m36.002 1026.4c0 6.0002 3.1208 6.9496-4.6108 6.9496s-13.115-3.238-13.115-10.97c5.5555.4755 4.9643 3.4455 10.017 3.1332 2.3749-.054 7.7087-7.1129 7.7087.8873z"/><path fill="#006f79" d="m38.572 1028c0 7.732 1.0555 9.5807-6.676 9.5807-7.7316 0-13.115-3.2374-13.115-10.97 5.5555.4753 7.9883 5.4671 11.479 4.9761 2.4642-.098 8.3124-11.319 8.3124-3.5872z"/><path fill="#eb9d00" d="m45.896 1023.6c2.6431 7.2665-6.2677 14-13.999 14-7.7316 0 6.0561 2.3185 6.0561-5.4136 0-7.7324-5.4161-.2371-3.9502-7.829 1.2922-6.6926 9.9994-5.9644 11.893-.7577z"/><path fill="#c4c4c4" d="m22 994.36h2v8h-2z"/><path fill="url(#2)" d="m12 1002.4h40v6h-40z"/><path fill="url(#1)" d="m12 1042.4h40v4h-40z"/><use stroke="silver" transform="matrix(1.9998887 0 0 2.0000677-46.099351 898.87761)" xlink:href="#0"/><path fill="url(#3)" d="m14 998.36h6v4h-6z"/><path fill="#969696" d="m10 992.36v56h44l.000001-56zm2 2h40v52h-40z" color="#000"/><g transform="matrix(1.9998887 0 0 2.0000677-46.099351 898.87761)"><use stroke="silver" xlink:href="#0"/><use stroke="#4c4c4c" xlink:href="#0"/></g><path fill="#939393" d="m17 1020.4h5v6h-5z"/></g></svg>