<svg xmlns="http://www.w3.org/2000/svg" xmlns:xlink="http://www.w3.org/1999/xlink" id="Capa_1" x="0" y="0" enable-background="new 0 0 60 60" version="1.1" viewBox="0 0 60 60" xml:space="preserve"><g><path d="M57,45v-2v-8v-2v-8v-2v-8v-2V3H31v10v2v8v2v8v2v8v2v10h26V45z M33,5h22v8H33V5z M33,15h22v8H33V15z M33,25h22v8H33V25z M33,35h22v8H33V35z M55,53H33v-8h22V53z"/><path d="M46,28h-4c-0.553,0-1,0.447-1,1s0.447,1,1,1h4c0.553,0,1-0.447,1-1S46.553,28,46,28z"/><path d="M46,18h-4c-0.553,0-1,0.447-1,1s0.447,1,1,1h4c0.553,0,1-0.447,1-1S46.553,18,46,18z"/><path d="M46,8h-4c-0.553,0-1,0.447-1,1s0.447,1,1,1h4c0.553,0,1-0.447,1-1S46.553,8,46,8z"/><path d="M46,38h-4c-0.553,0-1,0.447-1,1s0.447,1,1,1h4c0.553,0,1-0.447,1-1S46.553,38,46,38z"/><path d="M42,50h4c0.553,0,1-0.447,1-1s-0.447-1-1-1h-4c-0.553,0-1,0.447-1,1S41.447,50,42,50z"/><path d="M0,0v60h5v-2h50v2h5V0H0z M58,58h-1v-2H3v2H2V2h56V58z"/><path d="M30,3H3v52h27V3z M28,19h-7v-1c0-0.553-0.447-1-1-1s-1,0.447-1,1v1h-1v-1c0-0.553-0.447-1-1-1s-1,0.447-1,1v1h-1v-1 c0-0.553-0.447-1-1-1s-1,0.447-1,1v1h-1v-1c0-0.553-0.447-1-1-1s-1,0.447-1,1v1H5v-3h23V19z M5,21h5v2c0,0.553,0.447,1,1,1 s1-0.447,1-1v-2h1v2c0,0.553,0.447,1,1,1s1-0.447,1-1v-2h1v2c0,0.553,0.447,1,1,1s1-0.447,1-1v-2h1v2c0,0.553,0.447,1,1,1 s1-0.447,1-1v-2h7v24H5V21z M28,5v9H5V5H28z M5,53v-6h23v6H5z"/></g></svg>