<svg xmlns="http://www.w3.org/2000/svg" xmlns:xlink="http://www.w3.org/1999/xlink" id="Capa_1" x="0" y="0" enable-background="new 0 0 60 60" version="1.1" viewBox="0 0 60 60" xml:space="preserve"><path d="M60,21h-2V10H40h-2H22h-2H2v11H0v23h2v3h2v1c-0.552,0-1,0.448-1,1s0.448,1,1,1h2c0.552,0,1-0.448,1-1s-0.448-1-1-1v-1h2v-3	h44v3h2v1c-0.552,0-1,0.448-1,1s0.448,1,1,1h2c0.552,0,1-0.448,1-1s-0.448-1-1-1v-1h2v-3h2V21z M40,12h16v9h-4v7H40V12z M8,30h12h2	h7v6H8V30z M31,30h7h2h12v6H31V30z M22,12h16v16h-7h-2h-7V12z M4,12h16v16H8v-7H4V12z M6,45H4v-1h2V45z M56,45h-2v-1h2V45z M58,42	h-6H8H2V23h4v5v2v8h23h2h23v-8v-2v-5h4V42z"/></svg>